# xmcd
#
# Track frame offsets:
# 150
# 22287
# 44197
# 59142
# 82415
# 101780
# 129465
# 148615
# 183420
# 205915
#
# Disc length: 2994 seconds
#
# Revision: 6
# Processed by: cddbd v1.5.2PL0 Copyright (c) Steve Scherf et al.
# Submitted via: TinyPlayer 2.8
#
DISCID=a70bb00a
DTITLE=Wynonna Judd - Revelations
DYEAR=1996
DGENRE=Country
TTITLE0=To Be Loved by You
TTITLE1=Somebody to Love You
TTITLE2=Change the World
TTITLE3=Don't Look Back
TTITLE4=Old Enough to Know Better
TTITLE5=Heaven Help My Heart
TTITLE6=Love by Grace
TTITLE7=Free Bird
TTITLE8=My Angel Is Here
TTITLE9=Dance! Shout!
EXTD=Location:  - UPC: 5024239902022 - Catalogue number: CURCD 020 - Label: Curb Records, The Hit Label Ltd. - ASIN: B0000273M3 - Release Date: 1996 02 13 - Discogs: r1862019 - MUSICBRAINZ_ALBUMID: 1da3d23f-3f60-45fa-a723-9516d9bb6f69 - AMG: ;
EXTT0=
EXTT1=
EXTT2=
EXTT3=
EXTT4=
EXTT5=
EXTT6=
EXTT7=
EXTT8=
EXTT9=
PLAYORDER=
